# xmcd
#
# Track frame offsets:
#	150
#	15483
#	30756
#	50985
#	74279
#	91440
#	110384
#	126233
#	145159
#	163679
#	180629
#	198344
#	215441
#	230028
#	246317
#	260214
#	275372
#	288210
#	300289
#	315546
#
# Disc length: 4427 seconds
#
# Revision: 3
# Processed by: cddbd v1.5.2PL0 Copyright (c) Steve Scherf et al.
# Submitted via: EasyCDDAExtractor 12.0.7.1
#
DISCID=21114914
DTITLE=Various Artist - Горбушка
DYEAR=2001
DGENRE=Pop
TTITLE0=Стрелки - Не любовь (Remix DJ Доктор, группа Вирус)
TTITLE1=Руки вверх - Алешка
TTITLE2=Вирус - Дай мне
TTITLE3=Гости из будущего - Мой Baby
TTITLE4=Однажды - Падаю я
TTITLE5=Блестящие and Авария - Чао, бамбино (Remix)
TTITLE6=Небо - Обещела
TTITLE7=Данко - Малыш
TTITLE8=Оскар - Бег по острию ножа
TTITLE9=Хали Гали - Край света
TTITLE10=Revoльvers - Ты у меня одна
TTITLE11=Натали - Черепашка
TTITLE12=Влад Сташевский - Тише
TTITLE13=ТТ - Девчонки едут на юг
TTITLE14=Горячие головы - Типа я
TTITLE15=Тату - Ты мой враг
TTITLE16=140 ударов в минуту - Без тебя
TTITLE17=Куклы на прокат - Не скучай
TTITLE18=Игорек - Подождем
TTITLE19=Паприкаш - Папуасы
EXTD=YEAR: 2001 ID3G:  13
EXTT0=
EXTT1=
EXTT2=
EXTT3=
EXTT4=
EXTT5=
EXTT6=
EXTT7=
EXTT8=
EXTT9=
EXTT10=
EXTT11=
EXTT12=
EXTT13=
EXTT14=
EXTT15=
EXTT16=
EXTT17=
EXTT18=
EXTT19=
PLAYORDER=
